<svg width="263" height="263" viewBox="0 0 263 263" fill="none" xmlns="http://www.w3.org/2000/svg">
<mask id="path-1-inside-1_9_78" fill="white">
<path fill-rule="evenodd" clip-rule="evenodd" d="M174.407 7.15901C170.998 27.4997 153.309 43 132 43C110.578 43 92.8152 27.3355 89.5404 6.83629C102.718 2.40277 116.828 0 131.5 0C146.524 0 160.959 2.5195 174.407 7.15901ZM68.0292 16.3041C27.4703 38.699 0 81.8915 0 131.5C0 204.125 58.8746 263 131.5 263C204.125 263 263 204.125 263 131.5C263 82.2487 235.924 39.3214 195.845 16.7912C188.418 45.1096 162.648 66 132 66C101.176 66 75.2875 44.8697 68.0292 16.3041Z"/>
</mask>
<path d="M174.407 7.15901L218.788 14.5965L225.082 -22.9605L189.083 -35.3804L174.407 7.15901ZM89.5404 6.83629L75.1906 -35.8144L39.0963 -23.6705L45.1039 13.9351L89.5404 6.83629ZM68.0292 16.3041L111.643 5.22201L97.2921 -51.2577L46.2776 -23.0897L68.0292 16.3041ZM195.845 16.7912L217.896 -22.4357L167.101 -50.9902L152.317 5.37451L195.845 16.7912ZM132 88C175.654 88 211.806 56.2582 218.788 14.5965L130.026 -0.278463C130.124 -0.863613 130.414 -1.27477 130.686 -1.50685C130.835 -1.63455 131.036 -1.76168 131.294 -1.85864C131.573 -1.96368 131.834 -2 132 -2V88ZM45.1039 13.9351C51.8117 55.9241 88.1174 88 132 88V-2C132.167 -2 132.43 -1.96319 132.71 -1.85712C132.969 -1.75931 133.169 -1.63124 133.319 -1.50269C133.591 -1.26812 133.883 -0.85068 133.977 -0.262521L45.1039 13.9351ZM103.89 49.487C112.503 46.5892 121.77 45 131.5 45V-45C111.887 -45 92.9325 -41.7837 75.1906 -35.8144L103.89 49.487ZM131.5 45C141.462 45 150.941 46.6661 159.73 49.6984L189.083 -35.3804C170.977 -41.6271 151.585 -45 131.5 -45V45ZM45 131.5C45 98.9278 62.9852 70.4932 89.7807 55.6979L46.2776 -23.0897C-8.04464 6.9047 -45 64.8551 -45 131.5H45ZM131.5 218C83.7274 218 45 179.273 45 131.5H-45C-45 228.978 34.0217 308 131.5 308V218ZM218 131.5C218 179.273 179.273 218 131.5 218V308C228.978 308 308 228.978 308 131.5H218ZM173.794 56.018C200.274 70.9039 218 99.1616 218 131.5H308C308 65.3359 271.574 7.73895 217.896 -22.4357L173.794 56.018ZM132 111C183.607 111 226.884 75.8218 239.373 28.2078L152.317 5.37451C149.951 14.3973 141.689 21 132 21V111ZM24.4151 27.3861C36.6203 75.4204 80.0986 111 132 111V21C122.254 21 113.955 14.3189 111.643 5.22201L24.4151 27.3861Z" fill="#1877F2" mask="url(#path-1-inside-1_9_78)"/>
</svg>
