<svg width="753" height="761" viewBox="0 0 753 761" fill="none" xmlns="http://www.w3.org/2000/svg">
<path fill-rule="evenodd" clip-rule="evenodd" d="M50.4878 197.47C113.709 164.543 194.09 164.277 263.299 203.624C332.508 242.972 373.39 312.18 377.43 383.348C314.208 416.275 233.828 416.541 164.619 377.194C95.41 337.846 54.5277 268.638 50.4878 197.47Z" fill="#641517"/>
<path fill-rule="evenodd" clip-rule="evenodd" d="M374.903 383.36C377.997 312.145 417.957 242.4 486.638 202.137C555.318 161.874 635.695 161.073 699.348 193.159C696.254 264.374 656.294 334.119 587.613 374.382C518.933 414.645 438.556 415.446 374.903 383.36Z" fill="#641517"/>
<path fill-rule="evenodd" clip-rule="evenodd" d="M378.109 758.388C437.722 719.306 477.217 649.297 476.688 569.686C476.16 490.076 435.739 420.597 375.612 382.31C315.999 421.392 276.504 491.401 277.033 571.012C277.561 650.622 317.982 720.101 378.109 758.388Z" fill="#641517"/>
<path fill-rule="evenodd" clip-rule="evenodd" d="M374.407 375.036C377.974 446.229 418.396 515.707 487.343 555.514C556.289 595.32 636.67 595.587 700.108 563.08C696.541 491.887 656.119 422.409 587.173 382.602C518.227 342.796 437.846 342.529 374.407 375.036Z" fill="#B11D22"/>
<path fill-rule="evenodd" clip-rule="evenodd" d="M51.4104 563.065C114.849 595.572 195.23 595.305 264.176 555.499C333.122 515.693 373.544 446.215 377.111 375.022C313.673 342.515 233.292 342.782 164.346 382.588C95.3997 422.394 54.9778 491.872 51.4104 563.065Z" fill="#B11D22"/>
<path fill-rule="evenodd" clip-rule="evenodd" d="M376.395 0C316.523 38.6859 276.565 108.431 276.565 188.044C276.565 267.656 316.523 337.401 376.395 376.087C436.266 337.401 476.225 267.656 476.225 188.044C476.225 108.431 436.266 38.6859 376.395 0Z" fill="#B11D22"/>
</svg>
